<mxfile host="app.diagrams.net" agent="Mozilla/5.0 (X11; Linux x86_64; rv:134.0) Gecko/20100101 Firefox/134.0" version="26.2.14">
  <diagram id="C5RBs43oDa-KdzZeNtuy" name="Page-1">
    <mxGraphModel dx="3756" dy="3271" grid="1" gridSize="10" guides="1" tooltips="1" connect="1" arrows="1" fold="1" page="1" pageScale="1" pageWidth="827" pageHeight="1169" math="0" shadow="0">
      <root>
        <mxCell id="WIyWlLk6GJQsqaUBKTNV-0" />
        <mxCell id="WIyWlLk6GJQsqaUBKTNV-1" parent="WIyWlLk6GJQsqaUBKTNV-0" />
        <mxCell id="dsBlmj7pCga_AARecVS5-121" value="" style="rounded=0;whiteSpace=wrap;html=1;strokeColor=none;fillColor=light-dark(#f66151, #ededed);" parent="WIyWlLk6GJQsqaUBKTNV-1" vertex="1">
          <mxGeometry x="1006" y="745" width="254" height="560" as="geometry" />
        </mxCell>
        <mxCell id="dsBlmj7pCga_AARecVS5-192" value="" style="rounded=0;whiteSpace=wrap;html=1;fillColor=none;dashed=1;" parent="WIyWlLk6GJQsqaUBKTNV-1" vertex="1">
          <mxGeometry x="1088.5" y="1240" width="161.5" height="60" as="geometry" />
        </mxCell>
        <mxCell id="dsBlmj7pCga_AARecVS5-47" value="" style="rounded=0;whiteSpace=wrap;html=1;strokeColor=none;fillColor=light-dark(#8ff0a4, #ededed);" parent="WIyWlLk6GJQsqaUBKTNV-1" vertex="1">
          <mxGeometry x="895" y="-145" width="340" height="720" as="geometry" />
        </mxCell>
        <mxCell id="dsBlmj7pCga_AARecVS5-206" value="" style="rounded=0;whiteSpace=wrap;html=1;fillColor=none;dashed=1;" parent="WIyWlLk6GJQsqaUBKTNV-1" vertex="1">
          <mxGeometry x="911.5" y="180.5" width="178.5" height="149.5" as="geometry" />
        </mxCell>
        <mxCell id="dsBlmj7pCga_AARecVS5-191" value="" style="rounded=0;whiteSpace=wrap;html=1;fillColor=none;dashed=1;" parent="WIyWlLk6GJQsqaUBKTNV-1" vertex="1">
          <mxGeometry x="1089.5" y="863" width="160.5" height="317" as="geometry" />
        </mxCell>
        <mxCell id="dsBlmj7pCga_AARecVS5-46" value="" style="rounded=0;whiteSpace=wrap;html=1;strokeColor=none;fillColor=light-dark(#99c1f1, #ededed);" parent="WIyWlLk6GJQsqaUBKTNV-1" vertex="1">
          <mxGeometry x="350" y="100" width="245" height="400" as="geometry" />
        </mxCell>
        <mxCell id="dsBlmj7pCga_AARecVS5-187" value="" style="rounded=0;whiteSpace=wrap;html=1;fillColor=none;dashed=1;" parent="WIyWlLk6GJQsqaUBKTNV-1" vertex="1">
          <mxGeometry x="360" y="279" width="160" height="160" as="geometry" />
        </mxCell>
        <mxCell id="dsBlmj7pCga_AARecVS5-116" value="" style="rounded=0;whiteSpace=wrap;html=1;strokeColor=none;fillColor=light-dark(#99c1f1, #ededed);" parent="WIyWlLk6GJQsqaUBKTNV-1" vertex="1">
          <mxGeometry x="347" y="740" width="390" height="510" as="geometry" />
        </mxCell>
        <mxCell id="dsBlmj7pCga_AARecVS5-2" style="edgeStyle=orthogonalEdgeStyle;rounded=0;orthogonalLoop=1;jettySize=auto;html=1;exitX=0.5;exitY=1;exitDx=0;exitDy=0;entryX=0.5;entryY=0;entryDx=0;entryDy=0;" parent="WIyWlLk6GJQsqaUBKTNV-1" source="dsBlmj7pCga_AARecVS5-0" target="dsBlmj7pCga_AARecVS5-1" edge="1">
          <mxGeometry relative="1" as="geometry" />
        </mxCell>
        <mxCell id="dsBlmj7pCga_AARecVS5-0" value="Power on" style="ellipse;whiteSpace=wrap;html=1;" parent="WIyWlLk6GJQsqaUBKTNV-1" vertex="1">
          <mxGeometry x="395" y="-130" width="70" height="40" as="geometry" />
        </mxCell>
        <mxCell id="dsBlmj7pCga_AARecVS5-12" style="edgeStyle=orthogonalEdgeStyle;rounded=0;orthogonalLoop=1;jettySize=auto;html=1;exitX=0.5;exitY=1;exitDx=0;exitDy=0;entryX=0.5;entryY=0;entryDx=0;entryDy=0;" parent="WIyWlLk6GJQsqaUBKTNV-1" source="dsBlmj7pCga_AARecVS5-1" target="dsBlmj7pCga_AARecVS5-5" edge="1">
          <mxGeometry relative="1" as="geometry" />
        </mxCell>
        <mxCell id="dsBlmj7pCga_AARecVS5-1" value="Load firmware/&lt;br&gt;bootloader" style="rounded=1;whiteSpace=wrap;html=1;fontSize=12;glass=0;strokeWidth=1;shadow=0;" parent="WIyWlLk6GJQsqaUBKTNV-1" vertex="1">
          <mxGeometry x="370" y="-70" width="120" height="40" as="geometry" />
        </mxCell>
        <mxCell id="dsBlmj7pCga_AARecVS5-10" style="edgeStyle=orthogonalEdgeStyle;rounded=0;orthogonalLoop=1;jettySize=auto;html=1;exitX=0.5;exitY=1;exitDx=0;exitDy=0;entryX=0.5;entryY=0;entryDx=0;entryDy=0;" parent="WIyWlLk6GJQsqaUBKTNV-1" source="dsBlmj7pCga_AARecVS5-5" target="dsBlmj7pCga_AARecVS5-8" edge="1">
          <mxGeometry relative="1" as="geometry" />
        </mxCell>
        <mxCell id="dsBlmj7pCga_AARecVS5-5" value="Load Linux kernel" style="rounded=1;whiteSpace=wrap;html=1;fontSize=12;glass=0;strokeWidth=1;shadow=0;" parent="WIyWlLk6GJQsqaUBKTNV-1" vertex="1">
          <mxGeometry x="370" y="-10" width="120" height="40" as="geometry" />
        </mxCell>
        <mxCell id="dsBlmj7pCga_AARecVS5-15" style="edgeStyle=orthogonalEdgeStyle;rounded=0;orthogonalLoop=1;jettySize=auto;html=1;exitX=0.5;exitY=1;exitDx=0;exitDy=0;entryX=0.5;entryY=0;entryDx=0;entryDy=0;" parent="WIyWlLk6GJQsqaUBKTNV-1" source="dsBlmj7pCga_AARecVS5-8" target="dsBlmj7pCga_AARecVS5-14" edge="1">
          <mxGeometry relative="1" as="geometry" />
        </mxCell>
        <mxCell id="dsBlmj7pCga_AARecVS5-8" value="Load RAM disk" style="rounded=1;whiteSpace=wrap;html=1;fontSize=12;glass=0;strokeWidth=1;shadow=0;" parent="WIyWlLk6GJQsqaUBKTNV-1" vertex="1">
          <mxGeometry x="370" y="50" width="120" height="40" as="geometry" />
        </mxCell>
        <mxCell id="dsBlmj7pCga_AARecVS5-16" style="edgeStyle=orthogonalEdgeStyle;rounded=0;orthogonalLoop=1;jettySize=auto;html=1;exitX=0.5;exitY=1;exitDx=0;exitDy=0;endArrow=none;startFill=0;" parent="WIyWlLk6GJQsqaUBKTNV-1" source="dsBlmj7pCga_AARecVS5-14" edge="1">
          <mxGeometry relative="1" as="geometry">
            <mxPoint x="430" y="180" as="targetPoint" />
          </mxGeometry>
        </mxCell>
        <mxCell id="dsBlmj7pCga_AARecVS5-14" value="Launch init process" style="rounded=1;whiteSpace=wrap;html=1;fontSize=12;glass=0;strokeWidth=1;shadow=0;" parent="WIyWlLk6GJQsqaUBKTNV-1" vertex="1">
          <mxGeometry x="370" y="110" width="120" height="40" as="geometry" />
        </mxCell>
        <mxCell id="dsBlmj7pCga_AARecVS5-17" style="edgeStyle=orthogonalEdgeStyle;rounded=0;orthogonalLoop=1;jettySize=auto;html=1;exitX=0.5;exitY=1;exitDx=0;exitDy=0;endArrow=none;startFill=0;dashed=1;dashPattern=1 2;strokeWidth=2;" parent="WIyWlLk6GJQsqaUBKTNV-1" edge="1">
          <mxGeometry relative="1" as="geometry">
            <mxPoint x="429.86" y="199" as="targetPoint" />
            <mxPoint x="429.86" y="183" as="sourcePoint" />
          </mxGeometry>
        </mxCell>
        <mxCell id="dsBlmj7pCga_AARecVS5-18" style="edgeStyle=orthogonalEdgeStyle;rounded=0;orthogonalLoop=1;jettySize=auto;html=1;exitX=0.5;exitY=1;exitDx=0;exitDy=0;endArrow=classic;startFill=0;endFill=1;" parent="WIyWlLk6GJQsqaUBKTNV-1" edge="1">
          <mxGeometry relative="1" as="geometry">
            <mxPoint x="429.86" y="230" as="targetPoint" />
            <mxPoint x="429.86" y="200" as="sourcePoint" />
          </mxGeometry>
        </mxCell>
        <mxCell id="dsBlmj7pCga_AARecVS5-21" style="edgeStyle=orthogonalEdgeStyle;rounded=0;orthogonalLoop=1;jettySize=auto;html=1;exitX=0.5;exitY=1;exitDx=0;exitDy=0;entryX=0.5;entryY=0;entryDx=0;entryDy=0;" parent="WIyWlLk6GJQsqaUBKTNV-1" source="dsBlmj7pCga_AARecVS5-19" edge="1">
          <mxGeometry relative="1" as="geometry">
            <mxPoint x="430" y="290" as="targetPoint" />
          </mxGeometry>
        </mxCell>
        <mxCell id="dsBlmj7pCga_AARecVS5-19" value="Start dracut cleanup&lt;br&gt;hook" style="rounded=1;whiteSpace=wrap;html=1;fontSize=12;glass=0;strokeWidth=1;shadow=0;" parent="WIyWlLk6GJQsqaUBKTNV-1" vertex="1">
          <mxGeometry x="370" y="230" width="120" height="40" as="geometry" />
        </mxCell>
        <mxCell id="dsBlmj7pCga_AARecVS5-23" style="edgeStyle=orthogonalEdgeStyle;rounded=0;orthogonalLoop=1;jettySize=auto;html=1;exitX=0.5;exitY=1;exitDx=0;exitDy=0;" parent="WIyWlLk6GJQsqaUBKTNV-1" source="dsBlmj7pCga_AARecVS5-22" edge="1">
          <mxGeometry relative="1" as="geometry">
            <mxPoint x="429.80952380952385" y="390" as="targetPoint" />
          </mxGeometry>
        </mxCell>
        <mxCell id="dsBlmj7pCga_AARecVS5-28" style="edgeStyle=orthogonalEdgeStyle;rounded=0;orthogonalLoop=1;jettySize=auto;html=1;exitX=1;exitY=0.5;exitDx=0;exitDy=0;entryX=1;entryY=0.5;entryDx=0;entryDy=0;" parent="WIyWlLk6GJQsqaUBKTNV-1" source="dsBlmj7pCga_AARecVS5-22" target="dsBlmj7pCga_AARecVS5-27" edge="1">
          <mxGeometry relative="1" as="geometry" />
        </mxCell>
        <mxCell id="dsBlmj7pCga_AARecVS5-22" value="&lt;div&gt;wiperam&lt;/div&gt;&lt;div&gt;== skip&lt;/div&gt;" style="rhombus;whiteSpace=wrap;html=1;" parent="WIyWlLk6GJQsqaUBKTNV-1" vertex="1">
          <mxGeometry x="390" y="290" width="80" height="80" as="geometry" />
        </mxCell>
        <mxCell id="dsBlmj7pCga_AARecVS5-24" value="no" style="text;html=1;align=center;verticalAlign=middle;resizable=0;points=[];autosize=1;strokeColor=none;fillColor=none;" parent="WIyWlLk6GJQsqaUBKTNV-1" vertex="1">
          <mxGeometry x="385" y="360" width="40" height="30" as="geometry" />
        </mxCell>
        <mxCell id="dsBlmj7pCga_AARecVS5-26" style="edgeStyle=orthogonalEdgeStyle;rounded=0;orthogonalLoop=1;jettySize=auto;html=1;exitX=0.5;exitY=1;exitDx=0;exitDy=0;" parent="WIyWlLk6GJQsqaUBKTNV-1" source="dsBlmj7pCga_AARecVS5-25" edge="1">
          <mxGeometry relative="1" as="geometry">
            <mxPoint x="429.80952380952385" y="450" as="targetPoint" />
          </mxGeometry>
        </mxCell>
        <mxCell id="dsBlmj7pCga_AARecVS5-214" style="edgeStyle=orthogonalEdgeStyle;rounded=0;orthogonalLoop=1;jettySize=auto;html=1;exitX=1;exitY=0.5;exitDx=0;exitDy=0;entryX=0.5;entryY=0;entryDx=0;entryDy=0;dashed=1;" parent="WIyWlLk6GJQsqaUBKTNV-1" source="dsBlmj7pCga_AARecVS5-25" target="dsBlmj7pCga_AARecVS5-213" edge="1">
          <mxGeometry relative="1" as="geometry" />
        </mxCell>
        <mxCell id="dsBlmj7pCga_AARecVS5-25" value="Run need_shutdown" style="rounded=1;whiteSpace=wrap;html=1;fontSize=12;glass=0;strokeWidth=1;shadow=0;" parent="WIyWlLk6GJQsqaUBKTNV-1" vertex="1">
          <mxGeometry x="370" y="390" width="120" height="40" as="geometry" />
        </mxCell>
        <mxCell id="dsBlmj7pCga_AARecVS5-176" style="edgeStyle=orthogonalEdgeStyle;rounded=0;orthogonalLoop=1;jettySize=auto;html=1;exitX=0.5;exitY=1;exitDx=0;exitDy=0;entryX=0.5;entryY=0;entryDx=0;entryDy=0;" parent="WIyWlLk6GJQsqaUBKTNV-1" source="dsBlmj7pCga_AARecVS5-27" target="dsBlmj7pCga_AARecVS5-175" edge="1">
          <mxGeometry relative="1" as="geometry" />
        </mxCell>
        <mxCell id="dsBlmj7pCga_AARecVS5-27" value="Switch to root" style="rounded=1;whiteSpace=wrap;html=1;fontSize=12;glass=0;strokeWidth=1;shadow=0;" parent="WIyWlLk6GJQsqaUBKTNV-1" vertex="1">
          <mxGeometry x="370" y="450" width="120" height="40" as="geometry" />
        </mxCell>
        <mxCell id="dsBlmj7pCga_AARecVS5-29" value="yes" style="text;html=1;align=center;verticalAlign=middle;resizable=0;points=[];autosize=1;strokeColor=none;fillColor=none;" parent="WIyWlLk6GJQsqaUBKTNV-1" vertex="1">
          <mxGeometry x="470" y="300" width="40" height="30" as="geometry" />
        </mxCell>
        <mxCell id="dsBlmj7pCga_AARecVS5-30" style="edgeStyle=orthogonalEdgeStyle;rounded=0;orthogonalLoop=1;jettySize=auto;html=1;exitX=0.5;exitY=1;exitDx=0;exitDy=0;endArrow=none;startFill=0;" parent="WIyWlLk6GJQsqaUBKTNV-1" source="dsBlmj7pCga_AARecVS5-177" edge="1">
          <mxGeometry relative="1" as="geometry">
            <mxPoint x="991.14" y="-130" as="targetPoint" />
            <mxPoint x="991.14" y="-160" as="sourcePoint" />
          </mxGeometry>
        </mxCell>
        <mxCell id="dsBlmj7pCga_AARecVS5-31" style="edgeStyle=orthogonalEdgeStyle;rounded=0;orthogonalLoop=1;jettySize=auto;html=1;exitX=0.5;exitY=1;exitDx=0;exitDy=0;endArrow=none;startFill=0;dashed=1;dashPattern=1 2;strokeWidth=2;" parent="WIyWlLk6GJQsqaUBKTNV-1" edge="1">
          <mxGeometry relative="1" as="geometry">
            <mxPoint x="991" y="-111" as="targetPoint" />
            <mxPoint x="991" y="-127" as="sourcePoint" />
          </mxGeometry>
        </mxCell>
        <mxCell id="dsBlmj7pCga_AARecVS5-32" style="edgeStyle=orthogonalEdgeStyle;rounded=0;orthogonalLoop=1;jettySize=auto;html=1;exitX=0.5;exitY=1;exitDx=0;exitDy=0;endArrow=classic;startFill=0;endFill=1;entryX=0.5;entryY=0;entryDx=0;entryDy=0;" parent="WIyWlLk6GJQsqaUBKTNV-1" target="dsBlmj7pCga_AARecVS5-56" edge="1">
          <mxGeometry relative="1" as="geometry">
            <mxPoint x="991" y="-80" as="targetPoint" />
            <mxPoint x="991" y="-110" as="sourcePoint" />
          </mxGeometry>
        </mxCell>
        <mxCell id="dsBlmj7pCga_AARecVS5-37" style="edgeStyle=orthogonalEdgeStyle;rounded=0;orthogonalLoop=1;jettySize=auto;html=1;exitX=0;exitY=0.5;exitDx=0;exitDy=0;exitPerimeter=0;entryX=0;entryY=0.5;entryDx=0;entryDy=0;endArrow=none;startFill=0;dashed=1;" parent="WIyWlLk6GJQsqaUBKTNV-1" source="dsBlmj7pCga_AARecVS5-36" target="dsBlmj7pCga_AARecVS5-25" edge="1">
          <mxGeometry relative="1" as="geometry" />
        </mxCell>
        <mxCell id="dsBlmj7pCga_AARecVS5-36" value="" style="strokeWidth=2;html=1;shape=mxgraph.flowchart.annotation_2;align=left;labelPosition=right;pointerEvents=1;rotation=-180;" parent="WIyWlLk6GJQsqaUBKTNV-1" vertex="1">
          <mxGeometry x="305" y="375" width="45" height="70" as="geometry" />
        </mxCell>
        <mxCell id="dsBlmj7pCga_AARecVS5-38" value="&lt;div&gt;need_shutdown will&lt;/div&gt;&lt;div&gt;create&lt;/div&gt;&lt;div&gt;/run/initramfs/.need_shutdown&lt;br&gt;&lt;/div&gt;" style="text;html=1;align=center;verticalAlign=middle;resizable=0;points=[];autosize=1;strokeColor=none;fillColor=default;" parent="WIyWlLk6GJQsqaUBKTNV-1" vertex="1">
          <mxGeometry x="145" y="380" width="180" height="60" as="geometry" />
        </mxCell>
        <mxCell id="dsBlmj7pCga_AARecVS5-41" style="edgeStyle=orthogonalEdgeStyle;rounded=0;orthogonalLoop=1;jettySize=auto;html=1;exitX=0;exitY=0.5;exitDx=0;exitDy=0;exitPerimeter=0;endArrow=none;startFill=0;dashed=1;" parent="WIyWlLk6GJQsqaUBKTNV-1" source="dsBlmj7pCga_AARecVS5-39" edge="1">
          <mxGeometry relative="1" as="geometry">
            <mxPoint x="986" y="-119.09195402298849" as="targetPoint" />
          </mxGeometry>
        </mxCell>
        <mxCell id="dsBlmj7pCga_AARecVS5-39" value="" style="strokeWidth=2;html=1;shape=mxgraph.flowchart.annotation_2;align=left;labelPosition=right;pointerEvents=1;rotation=-180;" parent="WIyWlLk6GJQsqaUBKTNV-1" vertex="1">
          <mxGeometry x="850" y="-154" width="45" height="70" as="geometry" />
        </mxCell>
        <mxCell id="dsBlmj7pCga_AARecVS5-42" value="Userspace apps running,&lt;br&gt;secrets in RAM manipulation, etc." style="text;html=1;align=center;verticalAlign=middle;resizable=0;points=[];autosize=1;strokeColor=none;fillColor=default;" parent="WIyWlLk6GJQsqaUBKTNV-1" vertex="1">
          <mxGeometry x="668" y="-139" width="200" height="40" as="geometry" />
        </mxCell>
        <mxCell id="dsBlmj7pCga_AARecVS5-45" style="edgeStyle=orthogonalEdgeStyle;rounded=0;orthogonalLoop=1;jettySize=auto;html=1;exitX=0.5;exitY=1;exitDx=0;exitDy=0;entryX=0.5;entryY=0;entryDx=0;entryDy=0;" parent="WIyWlLk6GJQsqaUBKTNV-1" source="dsBlmj7pCga_AARecVS5-43" target="dsBlmj7pCga_AARecVS5-128" edge="1">
          <mxGeometry relative="1" as="geometry">
            <mxPoint x="991.0000000000002" y="439.9999999999998" as="targetPoint" />
          </mxGeometry>
        </mxCell>
        <mxCell id="dsBlmj7pCga_AARecVS5-43" value="dracut-shutdown.service exit" style="rounded=1;whiteSpace=wrap;html=1;fontSize=12;glass=0;strokeWidth=1;shadow=0;" parent="WIyWlLk6GJQsqaUBKTNV-1" vertex="1">
          <mxGeometry x="932" y="350" width="120" height="40" as="geometry" />
        </mxCell>
        <mxCell id="dsBlmj7pCga_AARecVS5-65" style="edgeStyle=orthogonalEdgeStyle;rounded=0;orthogonalLoop=1;jettySize=auto;html=1;exitX=0.5;exitY=1;exitDx=0;exitDy=0;entryX=0.5;entryY=0;entryDx=0;entryDy=0;" parent="WIyWlLk6GJQsqaUBKTNV-1" source="dsBlmj7pCga_AARecVS5-54" target="dsBlmj7pCga_AARecVS5-71" edge="1">
          <mxGeometry relative="1" as="geometry">
            <mxPoint x="992" y="176.57000000000016" as="targetPoint" />
          </mxGeometry>
        </mxCell>
        <mxCell id="dsBlmj7pCga_AARecVS5-54" value="ram-wipe-kexex-prepare.service exit" style="rounded=1;whiteSpace=wrap;html=1;fontSize=12;glass=0;strokeWidth=1;shadow=0;" parent="WIyWlLk6GJQsqaUBKTNV-1" vertex="1">
          <mxGeometry x="932" y="116" width="120" height="40" as="geometry" />
        </mxCell>
        <mxCell id="dsBlmj7pCga_AARecVS5-61" style="edgeStyle=orthogonalEdgeStyle;rounded=0;orthogonalLoop=1;jettySize=auto;html=1;exitX=0.5;exitY=1;exitDx=0;exitDy=0;entryX=0.5;entryY=0;entryDx=0;entryDy=0;" parent="WIyWlLk6GJQsqaUBKTNV-1" source="dsBlmj7pCga_AARecVS5-56" target="dsBlmj7pCga_AARecVS5-59" edge="1">
          <mxGeometry relative="1" as="geometry" />
        </mxCell>
        <mxCell id="dsBlmj7pCga_AARecVS5-66" style="edgeStyle=orthogonalEdgeStyle;rounded=0;orthogonalLoop=1;jettySize=auto;html=1;exitX=1;exitY=0.5;exitDx=0;exitDy=0;entryX=1;entryY=0.5;entryDx=0;entryDy=0;" parent="WIyWlLk6GJQsqaUBKTNV-1" source="dsBlmj7pCga_AARecVS5-56" target="dsBlmj7pCga_AARecVS5-43" edge="1">
          <mxGeometry relative="1" as="geometry">
            <mxPoint x="1082" y="386" as="targetPoint" />
            <Array as="points">
              <mxPoint x="1082" y="-44" />
              <mxPoint x="1082" y="370" />
            </Array>
          </mxGeometry>
        </mxCell>
        <mxCell id="dsBlmj7pCga_AARecVS5-56" value="&lt;div&gt;wiperam&lt;/div&gt;&lt;div&gt;== skip&lt;/div&gt;" style="rhombus;whiteSpace=wrap;html=1;" parent="WIyWlLk6GJQsqaUBKTNV-1" vertex="1">
          <mxGeometry x="952" y="-84" width="80" height="80" as="geometry" />
        </mxCell>
        <mxCell id="dsBlmj7pCga_AARecVS5-63" style="edgeStyle=orthogonalEdgeStyle;rounded=0;orthogonalLoop=1;jettySize=auto;html=1;exitX=0.5;exitY=1;exitDx=0;exitDy=0;entryX=0.5;entryY=0;entryDx=0;entryDy=0;" parent="WIyWlLk6GJQsqaUBKTNV-1" source="dsBlmj7pCga_AARecVS5-59" target="dsBlmj7pCga_AARecVS5-54" edge="1">
          <mxGeometry relative="1" as="geometry" />
        </mxCell>
        <mxCell id="dsBlmj7pCga_AARecVS5-127" style="edgeStyle=orthogonalEdgeStyle;rounded=0;orthogonalLoop=1;jettySize=auto;html=1;exitX=1;exitY=0.5;exitDx=0;exitDy=0;" parent="WIyWlLk6GJQsqaUBKTNV-1" source="dsBlmj7pCga_AARecVS5-59" edge="1">
          <mxGeometry relative="1" as="geometry">
            <mxPoint x="1082" y="56" as="targetPoint" />
          </mxGeometry>
        </mxCell>
        <mxCell id="dsBlmj7pCga_AARecVS5-59" value="" style="rhombus;whiteSpace=wrap;html=1;" parent="WIyWlLk6GJQsqaUBKTNV-1" vertex="1">
          <mxGeometry x="952" y="16" width="80" height="80" as="geometry" />
        </mxCell>
        <mxCell id="dsBlmj7pCga_AARecVS5-60" value="&lt;div&gt;wiperamexit&lt;/div&gt;&lt;div&gt;== yes&lt;br&gt;&lt;/div&gt;" style="text;html=1;align=center;verticalAlign=middle;resizable=0;points=[];autosize=1;strokeColor=none;fillColor=none;" parent="WIyWlLk6GJQsqaUBKTNV-1" vertex="1">
          <mxGeometry x="946" y="40" width="90" height="40" as="geometry" />
        </mxCell>
        <mxCell id="dsBlmj7pCga_AARecVS5-62" value="&lt;div&gt;no&lt;/div&gt;" style="text;html=1;align=center;verticalAlign=middle;resizable=0;points=[];autosize=1;strokeColor=none;fillColor=none;" parent="WIyWlLk6GJQsqaUBKTNV-1" vertex="1">
          <mxGeometry x="952" y="-14" width="40" height="30" as="geometry" />
        </mxCell>
        <mxCell id="dsBlmj7pCga_AARecVS5-64" value="&lt;div&gt;no&lt;/div&gt;" style="text;html=1;align=center;verticalAlign=middle;resizable=0;points=[];autosize=1;strokeColor=none;fillColor=none;" parent="WIyWlLk6GJQsqaUBKTNV-1" vertex="1">
          <mxGeometry x="952" y="86" width="40" height="30" as="geometry" />
        </mxCell>
        <mxCell id="dsBlmj7pCga_AARecVS5-67" value="yes" style="text;html=1;align=center;verticalAlign=middle;resizable=0;points=[];autosize=1;strokeColor=none;fillColor=none;" parent="WIyWlLk6GJQsqaUBKTNV-1" vertex="1">
          <mxGeometry x="1032" y="-74" width="40" height="30" as="geometry" />
        </mxCell>
        <mxCell id="dsBlmj7pCga_AARecVS5-70" value="yes" style="text;html=1;align=center;verticalAlign=middle;resizable=0;points=[];autosize=1;strokeColor=none;fillColor=none;" parent="WIyWlLk6GJQsqaUBKTNV-1" vertex="1">
          <mxGeometry x="1032" y="26" width="40" height="30" as="geometry" />
        </mxCell>
        <mxCell id="dsBlmj7pCga_AARecVS5-74" style="edgeStyle=orthogonalEdgeStyle;rounded=0;orthogonalLoop=1;jettySize=auto;html=1;exitX=0.5;exitY=1;exitDx=0;exitDy=0;entryX=0.5;entryY=0;entryDx=0;entryDy=0;" parent="WIyWlLk6GJQsqaUBKTNV-1" source="dsBlmj7pCga_AARecVS5-71" target="dsBlmj7pCga_AARecVS5-72" edge="1">
          <mxGeometry relative="1" as="geometry" />
        </mxCell>
        <mxCell id="dsBlmj7pCga_AARecVS5-71" value="Set wiperamexit to yes and wiperamaction to /reboot/poweroff/halt" style="rounded=1;whiteSpace=wrap;html=1;fontSize=12;glass=0;strokeWidth=1;shadow=0;" parent="WIyWlLk6GJQsqaUBKTNV-1" vertex="1">
          <mxGeometry x="922" y="190.00000000000023" width="140" height="50" as="geometry" />
        </mxCell>
        <mxCell id="dsBlmj7pCga_AARecVS5-126" style="edgeStyle=orthogonalEdgeStyle;rounded=0;orthogonalLoop=1;jettySize=auto;html=1;exitX=0.5;exitY=1;exitDx=0;exitDy=0;entryX=0.5;entryY=0;entryDx=0;entryDy=0;" parent="WIyWlLk6GJQsqaUBKTNV-1" source="dsBlmj7pCga_AARecVS5-72" target="dsBlmj7pCga_AARecVS5-43" edge="1">
          <mxGeometry relative="1" as="geometry" />
        </mxCell>
        <mxCell id="dsBlmj7pCga_AARecVS5-72" value="kexec -l" style="rounded=1;whiteSpace=wrap;html=1;fontSize=12;glass=0;strokeWidth=1;shadow=0;" parent="WIyWlLk6GJQsqaUBKTNV-1" vertex="1">
          <mxGeometry x="922" y="270.0000000000002" width="140" height="50" as="geometry" />
        </mxCell>
        <mxCell id="dsBlmj7pCga_AARecVS5-180" style="edgeStyle=orthogonalEdgeStyle;rounded=0;orthogonalLoop=1;jettySize=auto;html=1;exitX=0.5;exitY=1;exitDx=0;exitDy=0;entryX=0.5;entryY=0;entryDx=0;entryDy=0;" parent="WIyWlLk6GJQsqaUBKTNV-1" source="dsBlmj7pCga_AARecVS5-75" target="dsBlmj7pCga_AARecVS5-179" edge="1">
          <mxGeometry relative="1" as="geometry" />
        </mxCell>
        <mxCell id="dsBlmj7pCga_AARecVS5-75" value="Restore RAM disk" style="rounded=1;whiteSpace=wrap;html=1;fontSize=12;glass=0;strokeWidth=1;shadow=0;" parent="WIyWlLk6GJQsqaUBKTNV-1" vertex="1">
          <mxGeometry x="932" y="520" width="120" height="40" as="geometry" />
        </mxCell>
        <mxCell id="dsBlmj7pCga_AARecVS5-85" value="Inside RAM disk" style="text;html=1;align=center;verticalAlign=middle;resizable=0;points=[];autosize=1;strokeColor=none;fillColor=none;" parent="WIyWlLk6GJQsqaUBKTNV-1" vertex="1">
          <mxGeometry x="490" y="100" width="110" height="30" as="geometry" />
        </mxCell>
        <mxCell id="dsBlmj7pCga_AARecVS5-86" value="Inside rootfs" style="text;html=1;align=center;verticalAlign=middle;resizable=0;points=[];autosize=1;strokeColor=none;fillColor=none;" parent="WIyWlLk6GJQsqaUBKTNV-1" vertex="1">
          <mxGeometry x="1146" y="-150" width="90" height="30" as="geometry" />
        </mxCell>
        <mxCell id="dsBlmj7pCga_AARecVS5-92" style="edgeStyle=orthogonalEdgeStyle;rounded=0;orthogonalLoop=1;jettySize=auto;html=1;exitX=0.5;exitY=1;exitDx=0;exitDy=0;entryX=0.5;entryY=0;entryDx=0;entryDy=0;" parent="WIyWlLk6GJQsqaUBKTNV-1" source="dsBlmj7pCga_AARecVS5-87" target="dsBlmj7pCga_AARecVS5-89" edge="1">
          <mxGeometry relative="1" as="geometry" />
        </mxCell>
        <mxCell id="dsBlmj7pCga_AARecVS5-87" value="Start dracut cleanup&lt;br&gt;hook" style="rounded=1;whiteSpace=wrap;html=1;fontSize=12;glass=0;strokeWidth=1;shadow=0;" parent="WIyWlLk6GJQsqaUBKTNV-1" vertex="1">
          <mxGeometry x="449.5" y="750" width="120" height="40" as="geometry" />
        </mxCell>
        <mxCell id="dsBlmj7pCga_AARecVS5-93" style="edgeStyle=orthogonalEdgeStyle;rounded=0;orthogonalLoop=1;jettySize=auto;html=1;exitX=0.5;exitY=1;exitDx=0;exitDy=0;entryX=0.5;entryY=0;entryDx=0;entryDy=0;" parent="WIyWlLk6GJQsqaUBKTNV-1" source="dsBlmj7pCga_AARecVS5-89" target="dsBlmj7pCga_AARecVS5-90" edge="1">
          <mxGeometry relative="1" as="geometry" />
        </mxCell>
        <mxCell id="dsBlmj7pCga_AARecVS5-147" style="edgeStyle=orthogonalEdgeStyle;rounded=0;orthogonalLoop=1;jettySize=auto;html=1;exitX=1;exitY=0.5;exitDx=0;exitDy=0;entryX=0;entryY=0.5;entryDx=0;entryDy=0;" parent="WIyWlLk6GJQsqaUBKTNV-1" source="dsBlmj7pCga_AARecVS5-89" target="dsBlmj7pCga_AARecVS5-152" edge="1">
          <mxGeometry relative="1" as="geometry">
            <mxPoint x="594.5" y="895" as="targetPoint" />
          </mxGeometry>
        </mxCell>
        <mxCell id="dsBlmj7pCga_AARecVS5-89" value="&lt;div&gt;wiperam&lt;/div&gt;&lt;div&gt;== skip&lt;/div&gt;" style="rhombus;whiteSpace=wrap;html=1;" parent="WIyWlLk6GJQsqaUBKTNV-1" vertex="1">
          <mxGeometry x="469.5" y="810" width="80" height="80" as="geometry" />
        </mxCell>
        <mxCell id="dsBlmj7pCga_AARecVS5-99" style="edgeStyle=orthogonalEdgeStyle;rounded=0;orthogonalLoop=1;jettySize=auto;html=1;exitX=1;exitY=0.5;exitDx=0;exitDy=0;entryX=0;entryY=0.5;entryDx=0;entryDy=0;" parent="WIyWlLk6GJQsqaUBKTNV-1" source="dsBlmj7pCga_AARecVS5-90" target="dsBlmj7pCga_AARecVS5-152" edge="1">
          <mxGeometry relative="1" as="geometry">
            <mxPoint x="594.5" y="895" as="targetPoint" />
          </mxGeometry>
        </mxCell>
        <mxCell id="dsBlmj7pCga_AARecVS5-105" style="edgeStyle=orthogonalEdgeStyle;rounded=0;orthogonalLoop=1;jettySize=auto;html=1;exitX=0.5;exitY=1;exitDx=0;exitDy=0;entryX=0.5;entryY=0;entryDx=0;entryDy=0;" parent="WIyWlLk6GJQsqaUBKTNV-1" source="dsBlmj7pCga_AARecVS5-90" target="dsBlmj7pCga_AARecVS5-104" edge="1">
          <mxGeometry relative="1" as="geometry" />
        </mxCell>
        <mxCell id="dsBlmj7pCga_AARecVS5-90" value="" style="rhombus;whiteSpace=wrap;html=1;" parent="WIyWlLk6GJQsqaUBKTNV-1" vertex="1">
          <mxGeometry x="469.5" y="910" width="80" height="80" as="geometry" />
        </mxCell>
        <mxCell id="dsBlmj7pCga_AARecVS5-91" value="&lt;div&gt;wiperamexit&lt;/div&gt;&lt;div&gt;== yes&lt;br&gt;&lt;/div&gt;" style="text;html=1;align=center;verticalAlign=middle;resizable=0;points=[];autosize=1;strokeColor=none;fillColor=none;" parent="WIyWlLk6GJQsqaUBKTNV-1" vertex="1">
          <mxGeometry x="463.5" y="934" width="90" height="40" as="geometry" />
        </mxCell>
        <mxCell id="dsBlmj7pCga_AARecVS5-100" value="no" style="text;html=1;align=center;verticalAlign=middle;resizable=0;points=[];autosize=1;strokeColor=none;fillColor=none;" parent="WIyWlLk6GJQsqaUBKTNV-1" vertex="1">
          <mxGeometry x="469.5" y="880" width="40" height="30" as="geometry" />
        </mxCell>
        <mxCell id="dsBlmj7pCga_AARecVS5-101" value="no" style="text;html=1;align=center;verticalAlign=middle;resizable=0;points=[];autosize=1;strokeColor=none;fillColor=none;" parent="WIyWlLk6GJQsqaUBKTNV-1" vertex="1">
          <mxGeometry x="469.5" y="980" width="40" height="30" as="geometry" />
        </mxCell>
        <mxCell id="dsBlmj7pCga_AARecVS5-102" value="&lt;div&gt;yes&lt;/div&gt;" style="text;html=1;align=center;verticalAlign=middle;resizable=0;points=[];autosize=1;strokeColor=none;fillColor=none;" parent="WIyWlLk6GJQsqaUBKTNV-1" vertex="1">
          <mxGeometry x="537" y="820" width="40" height="30" as="geometry" />
        </mxCell>
        <mxCell id="dsBlmj7pCga_AARecVS5-103" value="&lt;div&gt;yes&lt;/div&gt;" style="text;html=1;align=center;verticalAlign=middle;resizable=0;points=[];autosize=1;strokeColor=none;fillColor=none;" parent="WIyWlLk6GJQsqaUBKTNV-1" vertex="1">
          <mxGeometry x="537" y="920" width="40" height="30" as="geometry" />
        </mxCell>
        <mxCell id="dsBlmj7pCga_AARecVS5-108" style="edgeStyle=orthogonalEdgeStyle;rounded=0;orthogonalLoop=1;jettySize=auto;html=1;exitX=0.5;exitY=1;exitDx=0;exitDy=0;entryX=0.5;entryY=0;entryDx=0;entryDy=0;" parent="WIyWlLk6GJQsqaUBKTNV-1" source="dsBlmj7pCga_AARecVS5-104" target="dsBlmj7pCga_AARecVS5-106" edge="1">
          <mxGeometry relative="1" as="geometry" />
        </mxCell>
        <mxCell id="dsBlmj7pCga_AARecVS5-104" value="First RAM wipe pass" style="rounded=1;whiteSpace=wrap;html=1;fontSize=12;glass=0;strokeWidth=1;shadow=0;" parent="WIyWlLk6GJQsqaUBKTNV-1" vertex="1">
          <mxGeometry x="449.5" y="1010" width="120" height="40" as="geometry" />
        </mxCell>
        <mxCell id="dsBlmj7pCga_AARecVS5-110" style="edgeStyle=orthogonalEdgeStyle;rounded=0;orthogonalLoop=1;jettySize=auto;html=1;exitX=0.5;exitY=1;exitDx=0;exitDy=0;entryX=0.5;entryY=0;entryDx=0;entryDy=0;" parent="WIyWlLk6GJQsqaUBKTNV-1" source="dsBlmj7pCga_AARecVS5-106" target="dsBlmj7pCga_AARecVS5-109" edge="1">
          <mxGeometry relative="1" as="geometry" />
        </mxCell>
        <mxCell id="dsBlmj7pCga_AARecVS5-113" style="edgeStyle=orthogonalEdgeStyle;rounded=0;orthogonalLoop=1;jettySize=auto;html=1;entryX=0.5;entryY=0;entryDx=0;entryDy=0;" parent="WIyWlLk6GJQsqaUBKTNV-1" source="dsBlmj7pCga_AARecVS5-106" target="dsBlmj7pCga_AARecVS5-112" edge="1">
          <mxGeometry relative="1" as="geometry" />
        </mxCell>
        <mxCell id="dsBlmj7pCga_AARecVS5-106" value="" style="rhombus;whiteSpace=wrap;html=1;" parent="WIyWlLk6GJQsqaUBKTNV-1" vertex="1">
          <mxGeometry x="452.75" y="1068.5" width="111.5" height="111.5" as="geometry" />
        </mxCell>
        <mxCell id="dsBlmj7pCga_AARecVS5-107" value="All encrypted disks&lt;br&gt; unmounted?" style="text;html=1;align=center;verticalAlign=middle;resizable=0;points=[];autosize=1;strokeColor=none;fillColor=none;" parent="WIyWlLk6GJQsqaUBKTNV-1" vertex="1">
          <mxGeometry x="448.5" y="1110" width="120" height="40" as="geometry" />
        </mxCell>
        <mxCell id="dsBlmj7pCga_AARecVS5-184" style="edgeStyle=orthogonalEdgeStyle;rounded=0;orthogonalLoop=1;jettySize=auto;html=1;exitX=0.5;exitY=1;exitDx=0;exitDy=0;entryX=0.5;entryY=0;entryDx=0;entryDy=0;" parent="WIyWlLk6GJQsqaUBKTNV-1" source="dsBlmj7pCga_AARecVS5-109" target="dsBlmj7pCga_AARecVS5-183" edge="1">
          <mxGeometry relative="1" as="geometry" />
        </mxCell>
        <mxCell id="dsBlmj7pCga_AARecVS5-109" value="kexec --exec" style="rounded=1;whiteSpace=wrap;html=1;fontSize=12;glass=0;strokeWidth=1;shadow=0;" parent="WIyWlLk6GJQsqaUBKTNV-1" vertex="1">
          <mxGeometry x="448.5" y="1200" width="120" height="40" as="geometry" />
        </mxCell>
        <mxCell id="dsBlmj7pCga_AARecVS5-111" value="yes" style="text;html=1;align=center;verticalAlign=middle;resizable=0;points=[];autosize=1;strokeColor=none;fillColor=none;" parent="WIyWlLk6GJQsqaUBKTNV-1" vertex="1">
          <mxGeometry x="469.5" y="1170" width="40" height="30" as="geometry" />
        </mxCell>
        <mxCell id="dsBlmj7pCga_AARecVS5-114" style="edgeStyle=orthogonalEdgeStyle;rounded=0;orthogonalLoop=1;jettySize=auto;html=1;exitX=0.5;exitY=1;exitDx=0;exitDy=0;entryX=0;entryY=0.5;entryDx=0;entryDy=0;" parent="WIyWlLk6GJQsqaUBKTNV-1" source="dsBlmj7pCga_AARecVS5-112" target="dsBlmj7pCga_AARecVS5-109" edge="1">
          <mxGeometry relative="1" as="geometry" />
        </mxCell>
        <mxCell id="dsBlmj7pCga_AARecVS5-112" value="???" style="rounded=1;whiteSpace=wrap;html=1;fontSize=12;glass=0;strokeWidth=1;shadow=0;" parent="WIyWlLk6GJQsqaUBKTNV-1" vertex="1">
          <mxGeometry x="357" y="1150" width="70" height="40" as="geometry" />
        </mxCell>
        <mxCell id="dsBlmj7pCga_AARecVS5-115" value="no" style="text;html=1;align=center;verticalAlign=middle;resizable=0;points=[];autosize=1;strokeColor=none;fillColor=none;" parent="WIyWlLk6GJQsqaUBKTNV-1" vertex="1">
          <mxGeometry x="412.75" y="1100" width="40" height="30" as="geometry" />
        </mxCell>
        <mxCell id="dsBlmj7pCga_AARecVS5-118" value="Inside RAM disk" style="text;html=1;align=center;verticalAlign=middle;resizable=0;points=[];autosize=1;strokeColor=none;fillColor=none;" parent="WIyWlLk6GJQsqaUBKTNV-1" vertex="1">
          <mxGeometry x="347" y="740" width="110" height="30" as="geometry" />
        </mxCell>
        <mxCell id="dsBlmj7pCga_AARecVS5-123" style="edgeStyle=orthogonalEdgeStyle;rounded=0;orthogonalLoop=1;jettySize=auto;html=1;exitX=0.5;exitY=1;exitDx=0;exitDy=0;entryX=0.5;entryY=0;entryDx=0;entryDy=0;" parent="WIyWlLk6GJQsqaUBKTNV-1" source="dsBlmj7pCga_AARecVS5-119" target="dsBlmj7pCga_AARecVS5-120" edge="1">
          <mxGeometry relative="1" as="geometry" />
        </mxCell>
        <mxCell id="dsBlmj7pCga_AARecVS5-119" value="Load Linux kernel" style="rounded=1;whiteSpace=wrap;html=1;fontSize=12;glass=0;strokeWidth=1;shadow=0;" parent="WIyWlLk6GJQsqaUBKTNV-1" vertex="1">
          <mxGeometry x="1098.5" y="755" width="120" height="40" as="geometry" />
        </mxCell>
        <mxCell id="dsBlmj7pCga_AARecVS5-137" style="edgeStyle=orthogonalEdgeStyle;rounded=0;orthogonalLoop=1;jettySize=auto;html=1;exitX=0.5;exitY=1;exitDx=0;exitDy=0;entryX=0.5;entryY=0;entryDx=0;entryDy=0;" parent="WIyWlLk6GJQsqaUBKTNV-1" source="dsBlmj7pCga_AARecVS5-120" target="dsBlmj7pCga_AARecVS5-136" edge="1">
          <mxGeometry relative="1" as="geometry" />
        </mxCell>
        <mxCell id="dsBlmj7pCga_AARecVS5-120" value="Load RAM disk" style="rounded=1;whiteSpace=wrap;html=1;fontSize=12;glass=0;strokeWidth=1;shadow=0;" parent="WIyWlLk6GJQsqaUBKTNV-1" vertex="1">
          <mxGeometry x="1098.5" y="815" width="120" height="40" as="geometry" />
        </mxCell>
        <mxCell id="dsBlmj7pCga_AARecVS5-130" style="edgeStyle=orthogonalEdgeStyle;rounded=0;orthogonalLoop=1;jettySize=auto;html=1;exitX=0.5;exitY=1;exitDx=0;exitDy=0;entryX=0.5;entryY=0;entryDx=0;entryDy=0;" parent="WIyWlLk6GJQsqaUBKTNV-1" source="dsBlmj7pCga_AARecVS5-128" target="dsBlmj7pCga_AARecVS5-75" edge="1">
          <mxGeometry relative="1" as="geometry" />
        </mxCell>
        <mxCell id="dsBlmj7pCga_AARecVS5-195" style="edgeStyle=orthogonalEdgeStyle;rounded=0;orthogonalLoop=1;jettySize=auto;html=1;entryX=0;entryY=0.5;entryDx=0;entryDy=0;" parent="WIyWlLk6GJQsqaUBKTNV-1" source="dsBlmj7pCga_AARecVS5-128" target="dsBlmj7pCga_AARecVS5-156" edge="1">
          <mxGeometry relative="1" as="geometry" />
        </mxCell>
        <mxCell id="dsBlmj7pCga_AARecVS5-128" value="Does /run/initramfs/.need_shutdown exist?" style="rhombus;whiteSpace=wrap;html=1;" parent="WIyWlLk6GJQsqaUBKTNV-1" vertex="1">
          <mxGeometry x="909.5" y="420" width="165" height="80" as="geometry" />
        </mxCell>
        <mxCell id="dsBlmj7pCga_AARecVS5-133" value="no" style="text;html=1;align=center;verticalAlign=middle;resizable=0;points=[];autosize=1;strokeColor=none;fillColor=none;" parent="WIyWlLk6GJQsqaUBKTNV-1" vertex="1">
          <mxGeometry x="1066" y="430" width="40" height="30" as="geometry" />
        </mxCell>
        <mxCell id="dsBlmj7pCga_AARecVS5-134" value="yes" style="text;html=1;align=center;verticalAlign=middle;resizable=0;points=[];autosize=1;strokeColor=none;fillColor=none;" parent="WIyWlLk6GJQsqaUBKTNV-1" vertex="1">
          <mxGeometry x="952" y="490" width="40" height="30" as="geometry" />
        </mxCell>
        <mxCell id="dsBlmj7pCga_AARecVS5-141" style="edgeStyle=orthogonalEdgeStyle;rounded=0;orthogonalLoop=1;jettySize=auto;html=1;exitX=0.5;exitY=1;exitDx=0;exitDy=0;entryX=0.5;entryY=0;entryDx=0;entryDy=0;" parent="WIyWlLk6GJQsqaUBKTNV-1" source="dsBlmj7pCga_AARecVS5-136" target="dsBlmj7pCga_AARecVS5-139" edge="1">
          <mxGeometry relative="1" as="geometry" />
        </mxCell>
        <mxCell id="dsBlmj7pCga_AARecVS5-136" value="Start dracut pre-udev&lt;br&gt;hook" style="rounded=1;whiteSpace=wrap;html=1;fontSize=12;glass=0;strokeWidth=1;shadow=0;" parent="WIyWlLk6GJQsqaUBKTNV-1" vertex="1">
          <mxGeometry x="1097.5" y="875" width="120" height="40" as="geometry" />
        </mxCell>
        <mxCell id="dsBlmj7pCga_AARecVS5-144" style="edgeStyle=orthogonalEdgeStyle;rounded=0;orthogonalLoop=1;jettySize=auto;html=1;exitX=0.5;exitY=1;exitDx=0;exitDy=0;entryX=0.5;entryY=0;entryDx=0;entryDy=0;" parent="WIyWlLk6GJQsqaUBKTNV-1" source="dsBlmj7pCga_AARecVS5-139" target="dsBlmj7pCga_AARecVS5-142" edge="1">
          <mxGeometry relative="1" as="geometry" />
        </mxCell>
        <mxCell id="dsBlmj7pCga_AARecVS5-174" style="edgeStyle=orthogonalEdgeStyle;rounded=0;orthogonalLoop=1;jettySize=auto;html=1;entryX=1;entryY=0.5;entryDx=0;entryDy=0;" parent="WIyWlLk6GJQsqaUBKTNV-1" source="dsBlmj7pCga_AARecVS5-139" target="dsBlmj7pCga_AARecVS5-149" edge="1">
          <mxGeometry relative="1" as="geometry">
            <Array as="points">
              <mxPoint x="1240" y="975" />
              <mxPoint x="1240" y="1215" />
            </Array>
          </mxGeometry>
        </mxCell>
        <mxCell id="dsBlmj7pCga_AARecVS5-139" value="" style="rhombus;whiteSpace=wrap;html=1;" parent="WIyWlLk6GJQsqaUBKTNV-1" vertex="1">
          <mxGeometry x="1118.5" y="935" width="80" height="80" as="geometry" />
        </mxCell>
        <mxCell id="dsBlmj7pCga_AARecVS5-140" value="&lt;div&gt;wiperamexit&lt;/div&gt;&lt;div&gt;== no&lt;br&gt;&lt;/div&gt;" style="text;html=1;align=center;verticalAlign=middle;resizable=0;points=[];autosize=1;strokeColor=none;fillColor=none;" parent="WIyWlLk6GJQsqaUBKTNV-1" vertex="1">
          <mxGeometry x="1112.5" y="959" width="90" height="40" as="geometry" />
        </mxCell>
        <mxCell id="dsBlmj7pCga_AARecVS5-166" style="edgeStyle=orthogonalEdgeStyle;rounded=0;orthogonalLoop=1;jettySize=auto;html=1;exitX=0.5;exitY=1;exitDx=0;exitDy=0;entryX=0.5;entryY=0;entryDx=0;entryDy=0;" parent="WIyWlLk6GJQsqaUBKTNV-1" source="dsBlmj7pCga_AARecVS5-142" target="dsBlmj7pCga_AARecVS5-148" edge="1">
          <mxGeometry relative="1" as="geometry" />
        </mxCell>
        <mxCell id="dsBlmj7pCga_AARecVS5-172" style="edgeStyle=orthogonalEdgeStyle;rounded=0;orthogonalLoop=1;jettySize=auto;html=1;entryX=1;entryY=0.5;entryDx=0;entryDy=0;" parent="WIyWlLk6GJQsqaUBKTNV-1" source="dsBlmj7pCga_AARecVS5-142" target="dsBlmj7pCga_AARecVS5-149" edge="1">
          <mxGeometry relative="1" as="geometry">
            <mxPoint x="1406" y="1145" as="targetPoint" />
            <Array as="points">
              <mxPoint x="1240" y="1075" />
              <mxPoint x="1240" y="1215" />
            </Array>
          </mxGeometry>
        </mxCell>
        <mxCell id="QIF2r9_5ypPfWMjJr6bX-17" style="edgeStyle=orthogonalEdgeStyle;rounded=0;orthogonalLoop=1;jettySize=auto;html=1;exitX=0;exitY=0.5;exitDx=0;exitDy=0;entryX=1;entryY=0.5;entryDx=0;entryDy=0;startArrow=classic;startFill=1;endArrow=none;dashed=1;" edge="1" parent="WIyWlLk6GJQsqaUBKTNV-1" source="dsBlmj7pCga_AARecVS5-142" target="QIF2r9_5ypPfWMjJr6bX-14">
          <mxGeometry relative="1" as="geometry" />
        </mxCell>
        <mxCell id="dsBlmj7pCga_AARecVS5-142" value="" style="rhombus;whiteSpace=wrap;html=1;" parent="WIyWlLk6GJQsqaUBKTNV-1" vertex="1">
          <mxGeometry x="1119.5" y="1035" width="80" height="80" as="geometry" />
        </mxCell>
        <mxCell id="dsBlmj7pCga_AARecVS5-143" value="&lt;div&gt;wiperamexit&lt;/div&gt;&lt;div&gt;== yes&lt;/div&gt;" style="text;html=1;align=center;verticalAlign=middle;resizable=0;points=[];autosize=1;strokeColor=none;fillColor=none;" parent="WIyWlLk6GJQsqaUBKTNV-1" vertex="1">
          <mxGeometry x="1113.5" y="1059" width="90" height="40" as="geometry" />
        </mxCell>
        <mxCell id="dsBlmj7pCga_AARecVS5-145" value="no" style="text;html=1;align=center;verticalAlign=middle;resizable=0;points=[];autosize=1;strokeColor=none;fillColor=none;" parent="WIyWlLk6GJQsqaUBKTNV-1" vertex="1">
          <mxGeometry x="1122" y="1005" width="40" height="30" as="geometry" />
        </mxCell>
        <mxCell id="dsBlmj7pCga_AARecVS5-165" style="edgeStyle=orthogonalEdgeStyle;rounded=0;orthogonalLoop=1;jettySize=auto;html=1;exitX=0.5;exitY=1;exitDx=0;exitDy=0;entryX=0.5;entryY=0;entryDx=0;entryDy=0;" parent="WIyWlLk6GJQsqaUBKTNV-1" source="dsBlmj7pCga_AARecVS5-148" target="dsBlmj7pCga_AARecVS5-149" edge="1">
          <mxGeometry relative="1" as="geometry" />
        </mxCell>
        <mxCell id="dsBlmj7pCga_AARecVS5-148" value="Second WAP wipe pass" style="rounded=1;whiteSpace=wrap;html=1;fontSize=12;glass=0;strokeWidth=1;shadow=0;" parent="WIyWlLk6GJQsqaUBKTNV-1" vertex="1">
          <mxGeometry x="1099.5" y="1135" width="120" height="40" as="geometry" />
        </mxCell>
        <mxCell id="dsBlmj7pCga_AARecVS5-163" value="" style="edgeStyle=orthogonalEdgeStyle;rounded=0;orthogonalLoop=1;jettySize=auto;html=1;" parent="WIyWlLk6GJQsqaUBKTNV-1" source="dsBlmj7pCga_AARecVS5-149" target="dsBlmj7pCga_AARecVS5-159" edge="1">
          <mxGeometry relative="1" as="geometry" />
        </mxCell>
        <mxCell id="dsBlmj7pCga_AARecVS5-149" value="Start dracut pre-trigger hook" style="rounded=1;whiteSpace=wrap;html=1;fontSize=12;glass=0;strokeWidth=1;shadow=0;" parent="WIyWlLk6GJQsqaUBKTNV-1" vertex="1">
          <mxGeometry x="1099.5" y="1195" width="120" height="40" as="geometry" />
        </mxCell>
        <mxCell id="dsBlmj7pCga_AARecVS5-151" value="Power down" style="ellipse;whiteSpace=wrap;html=1;" parent="WIyWlLk6GJQsqaUBKTNV-1" vertex="1">
          <mxGeometry x="632" y="1260" width="70" height="40" as="geometry" />
        </mxCell>
        <mxCell id="dsBlmj7pCga_AARecVS5-153" style="edgeStyle=orthogonalEdgeStyle;rounded=0;orthogonalLoop=1;jettySize=auto;html=1;exitX=0.5;exitY=1;exitDx=0;exitDy=0;entryX=0.5;entryY=0;entryDx=0;entryDy=0;" parent="WIyWlLk6GJQsqaUBKTNV-1" source="dsBlmj7pCga_AARecVS5-152" target="dsBlmj7pCga_AARecVS5-151" edge="1">
          <mxGeometry relative="1" as="geometry" />
        </mxCell>
        <mxCell id="dsBlmj7pCga_AARecVS5-152" value="Reboot/power off" style="rounded=1;whiteSpace=wrap;html=1;fontSize=12;glass=0;strokeWidth=1;shadow=0;" parent="WIyWlLk6GJQsqaUBKTNV-1" vertex="1">
          <mxGeometry x="607" y="875" width="120" height="40" as="geometry" />
        </mxCell>
        <mxCell id="dsBlmj7pCga_AARecVS5-154" value="Power down" style="ellipse;whiteSpace=wrap;html=1;" parent="WIyWlLk6GJQsqaUBKTNV-1" vertex="1">
          <mxGeometry x="1126" y="579" width="70" height="40" as="geometry" />
        </mxCell>
        <mxCell id="dsBlmj7pCga_AARecVS5-210" style="edgeStyle=orthogonalEdgeStyle;rounded=0;orthogonalLoop=1;jettySize=auto;html=1;entryX=0.5;entryY=0;entryDx=0;entryDy=0;" parent="WIyWlLk6GJQsqaUBKTNV-1" source="dsBlmj7pCga_AARecVS5-156" target="dsBlmj7pCga_AARecVS5-154" edge="1">
          <mxGeometry relative="1" as="geometry" />
        </mxCell>
        <mxCell id="dsBlmj7pCga_AARecVS5-156" value="Reboot/power off" style="rounded=1;whiteSpace=wrap;html=1;fontSize=12;glass=0;strokeWidth=1;shadow=0;" parent="WIyWlLk6GJQsqaUBKTNV-1" vertex="1">
          <mxGeometry x="1101" y="440" width="120" height="40" as="geometry" />
        </mxCell>
        <mxCell id="dsBlmj7pCga_AARecVS5-157" value="Power down" style="ellipse;whiteSpace=wrap;html=1;" parent="WIyWlLk6GJQsqaUBKTNV-1" vertex="1">
          <mxGeometry x="1124.5" y="1315" width="70" height="40" as="geometry" />
        </mxCell>
        <mxCell id="dsBlmj7pCga_AARecVS5-171" style="edgeStyle=orthogonalEdgeStyle;rounded=0;orthogonalLoop=1;jettySize=auto;html=1;exitX=0.5;exitY=1;exitDx=0;exitDy=0;entryX=0.5;entryY=0;entryDx=0;entryDy=0;" parent="WIyWlLk6GJQsqaUBKTNV-1" source="dsBlmj7pCga_AARecVS5-159" target="dsBlmj7pCga_AARecVS5-157" edge="1">
          <mxGeometry relative="1" as="geometry" />
        </mxCell>
        <mxCell id="dsBlmj7pCga_AARecVS5-159" value="Reboot/power off/halt" style="rounded=1;whiteSpace=wrap;html=1;fontSize=12;glass=0;strokeWidth=1;shadow=0;" parent="WIyWlLk6GJQsqaUBKTNV-1" vertex="1">
          <mxGeometry x="1099.5" y="1255" width="120" height="40" as="geometry" />
        </mxCell>
        <mxCell id="dsBlmj7pCga_AARecVS5-167" value="yes" style="text;html=1;align=center;verticalAlign=middle;resizable=0;points=[];autosize=1;strokeColor=none;fillColor=none;" parent="WIyWlLk6GJQsqaUBKTNV-1" vertex="1">
          <mxGeometry x="1121" y="1105" width="40" height="30" as="geometry" />
        </mxCell>
        <mxCell id="dsBlmj7pCga_AARecVS5-175" value="C1" style="ellipse;whiteSpace=wrap;html=1;aspect=fixed;" parent="WIyWlLk6GJQsqaUBKTNV-1" vertex="1">
          <mxGeometry x="415" y="515" width="30" height="30" as="geometry" />
        </mxCell>
        <mxCell id="dsBlmj7pCga_AARecVS5-177" value="C1" style="ellipse;whiteSpace=wrap;html=1;aspect=fixed;" parent="WIyWlLk6GJQsqaUBKTNV-1" vertex="1">
          <mxGeometry x="976" y="-200" width="30" height="30" as="geometry" />
        </mxCell>
        <mxCell id="dsBlmj7pCga_AARecVS5-179" value="C2" style="ellipse;whiteSpace=wrap;html=1;aspect=fixed;" parent="WIyWlLk6GJQsqaUBKTNV-1" vertex="1">
          <mxGeometry x="977" y="584" width="30" height="30" as="geometry" />
        </mxCell>
        <mxCell id="dsBlmj7pCga_AARecVS5-182" style="edgeStyle=orthogonalEdgeStyle;rounded=0;orthogonalLoop=1;jettySize=auto;html=1;exitX=0.5;exitY=1;exitDx=0;exitDy=0;entryX=0.5;entryY=0;entryDx=0;entryDy=0;" parent="WIyWlLk6GJQsqaUBKTNV-1" source="dsBlmj7pCga_AARecVS5-181" target="dsBlmj7pCga_AARecVS5-87" edge="1">
          <mxGeometry relative="1" as="geometry" />
        </mxCell>
        <mxCell id="dsBlmj7pCga_AARecVS5-181" value="C2" style="ellipse;whiteSpace=wrap;html=1;aspect=fixed;" parent="WIyWlLk6GJQsqaUBKTNV-1" vertex="1">
          <mxGeometry x="494.5" y="700" width="30" height="30" as="geometry" />
        </mxCell>
        <mxCell id="dsBlmj7pCga_AARecVS5-183" value="C3" style="ellipse;whiteSpace=wrap;html=1;aspect=fixed;" parent="WIyWlLk6GJQsqaUBKTNV-1" vertex="1">
          <mxGeometry x="493.5" y="1270" width="30" height="30" as="geometry" />
        </mxCell>
        <mxCell id="dsBlmj7pCga_AARecVS5-186" style="edgeStyle=orthogonalEdgeStyle;rounded=0;orthogonalLoop=1;jettySize=auto;html=1;exitX=0.5;exitY=1;exitDx=0;exitDy=0;entryX=0.5;entryY=0;entryDx=0;entryDy=0;" parent="WIyWlLk6GJQsqaUBKTNV-1" source="dsBlmj7pCga_AARecVS5-185" target="dsBlmj7pCga_AARecVS5-119" edge="1">
          <mxGeometry relative="1" as="geometry" />
        </mxCell>
        <mxCell id="dsBlmj7pCga_AARecVS5-185" value="C3" style="ellipse;whiteSpace=wrap;html=1;aspect=fixed;" parent="WIyWlLk6GJQsqaUBKTNV-1" vertex="1">
          <mxGeometry x="1143.5" y="705" width="30" height="30" as="geometry" />
        </mxCell>
        <mxCell id="dsBlmj7pCga_AARecVS5-188" value="" style="rounded=0;whiteSpace=wrap;html=1;fillColor=none;dashed=1;" parent="WIyWlLk6GJQsqaUBKTNV-1" vertex="1">
          <mxGeometry x="350" y="799" width="245" height="448" as="geometry" />
        </mxCell>
        <mxCell id="dsBlmj7pCga_AARecVS5-190" value="Second kernel" style="text;html=1;align=center;verticalAlign=middle;resizable=0;points=[];autosize=1;strokeColor=none;fillColor=none;" parent="WIyWlLk6GJQsqaUBKTNV-1" vertex="1">
          <mxGeometry x="1006" y="745" width="100" height="30" as="geometry" />
        </mxCell>
        <mxCell id="dsBlmj7pCga_AARecVS5-193" value="" style="rounded=0;whiteSpace=wrap;html=1;fillColor=none;dashed=1;" parent="WIyWlLk6GJQsqaUBKTNV-1" vertex="1">
          <mxGeometry x="912" y="-99" width="178" height="269" as="geometry" />
        </mxCell>
        <mxCell id="dsBlmj7pCga_AARecVS5-198" style="edgeStyle=orthogonalEdgeStyle;rounded=0;orthogonalLoop=1;jettySize=auto;html=1;exitX=0;exitY=0.5;exitDx=0;exitDy=0;exitPerimeter=0;entryX=0;entryY=0.5;entryDx=0;entryDy=0;dashed=1;endArrow=none;startFill=0;" parent="WIyWlLk6GJQsqaUBKTNV-1" source="dsBlmj7pCga_AARecVS5-197" target="dsBlmj7pCga_AARecVS5-187" edge="1">
          <mxGeometry relative="1" as="geometry">
            <Array as="points">
              <mxPoint x="350" y="315" />
              <mxPoint x="350" y="359" />
            </Array>
          </mxGeometry>
        </mxCell>
        <mxCell id="dsBlmj7pCga_AARecVS5-197" value="" style="strokeWidth=2;html=1;shape=mxgraph.flowchart.annotation_2;align=left;labelPosition=right;pointerEvents=1;rotation=-180;" parent="WIyWlLk6GJQsqaUBKTNV-1" vertex="1">
          <mxGeometry x="300" y="280" width="45" height="70" as="geometry" />
        </mxCell>
        <mxCell id="dsBlmj7pCga_AARecVS5-200" style="edgeStyle=orthogonalEdgeStyle;rounded=0;orthogonalLoop=1;jettySize=auto;html=1;exitX=0;exitY=0.5;exitDx=0;exitDy=0;exitPerimeter=0;entryX=0;entryY=0.5;entryDx=0;entryDy=0;dashed=1;endArrow=none;startFill=0;" parent="WIyWlLk6GJQsqaUBKTNV-1" source="dsBlmj7pCga_AARecVS5-199" target="dsBlmj7pCga_AARecVS5-188" edge="1">
          <mxGeometry relative="1" as="geometry" />
        </mxCell>
        <mxCell id="dsBlmj7pCga_AARecVS5-199" value="" style="strokeWidth=2;html=1;shape=mxgraph.flowchart.annotation_2;align=left;labelPosition=right;pointerEvents=1;rotation=-180;" parent="WIyWlLk6GJQsqaUBKTNV-1" vertex="1">
          <mxGeometry x="270" y="988" width="45" height="70" as="geometry" />
        </mxCell>
        <mxCell id="dsBlmj7pCga_AARecVS5-201" value="Handled by&lt;br&gt;wipe-ram-needshutdown.sh" style="text;html=1;align=center;verticalAlign=middle;resizable=0;points=[];autosize=1;strokeColor=none;fillColor=default;" parent="WIyWlLk6GJQsqaUBKTNV-1" vertex="1">
          <mxGeometry x="150" y="295" width="170" height="40" as="geometry" />
        </mxCell>
        <mxCell id="dsBlmj7pCga_AARecVS5-202" value="Handled by&lt;br&gt;wipe-ram.sh" style="text;html=1;align=center;verticalAlign=middle;resizable=0;points=[];autosize=1;strokeColor=none;fillColor=default;" parent="WIyWlLk6GJQsqaUBKTNV-1" vertex="1">
          <mxGeometry x="190" y="1003" width="90" height="40" as="geometry" />
        </mxCell>
        <mxCell id="dsBlmj7pCga_AARecVS5-205" style="edgeStyle=orthogonalEdgeStyle;rounded=0;orthogonalLoop=1;jettySize=auto;html=1;exitX=0;exitY=0.5;exitDx=0;exitDy=0;exitPerimeter=0;entryX=0;entryY=0.5;entryDx=0;entryDy=0;dashed=1;endArrow=none;startFill=0;" parent="WIyWlLk6GJQsqaUBKTNV-1" source="dsBlmj7pCga_AARecVS5-203" target="dsBlmj7pCga_AARecVS5-193" edge="1">
          <mxGeometry relative="1" as="geometry" />
        </mxCell>
        <mxCell id="dsBlmj7pCga_AARecVS5-203" value="" style="strokeWidth=2;html=1;shape=mxgraph.flowchart.annotation_2;align=left;labelPosition=right;pointerEvents=1;rotation=-180;" parent="WIyWlLk6GJQsqaUBKTNV-1" vertex="1">
          <mxGeometry x="850" y="0.5" width="45" height="70" as="geometry" />
        </mxCell>
        <mxCell id="dsBlmj7pCga_AARecVS5-204" value="Handled by&lt;br&gt;ram-wipe-kexec-prepare.service" style="text;html=1;align=center;verticalAlign=middle;resizable=0;points=[];autosize=1;strokeColor=none;fillColor=default;" parent="WIyWlLk6GJQsqaUBKTNV-1" vertex="1">
          <mxGeometry x="680" y="15.5" width="190" height="40" as="geometry" />
        </mxCell>
        <mxCell id="dsBlmj7pCga_AARecVS5-212" style="edgeStyle=orthogonalEdgeStyle;rounded=0;orthogonalLoop=1;jettySize=auto;html=1;exitX=0;exitY=0.5;exitDx=0;exitDy=0;exitPerimeter=0;entryX=0;entryY=0.5;entryDx=0;entryDy=0;dashed=1;endArrow=none;startFill=0;" parent="WIyWlLk6GJQsqaUBKTNV-1" source="dsBlmj7pCga_AARecVS5-208" target="dsBlmj7pCga_AARecVS5-206" edge="1">
          <mxGeometry relative="1" as="geometry">
            <Array as="points">
              <mxPoint x="886" y="255" />
            </Array>
          </mxGeometry>
        </mxCell>
        <mxCell id="dsBlmj7pCga_AARecVS5-208" value="" style="strokeWidth=2;html=1;shape=mxgraph.flowchart.annotation_2;align=left;labelPosition=right;pointerEvents=1;rotation=-180;" parent="WIyWlLk6GJQsqaUBKTNV-1" vertex="1">
          <mxGeometry x="843" y="260" width="45" height="70" as="geometry" />
        </mxCell>
        <mxCell id="dsBlmj7pCga_AARecVS5-209" value="Handled by&lt;br&gt;cold-boot-attack-defense-kexec-prepare" style="text;html=1;align=center;verticalAlign=middle;resizable=0;points=[];autosize=1;strokeColor=none;fillColor=default;" parent="WIyWlLk6GJQsqaUBKTNV-1" vertex="1">
          <mxGeometry x="632" y="275" width="230" height="40" as="geometry" />
        </mxCell>
        <mxCell id="dsBlmj7pCga_AARecVS5-213" value="C4" style="ellipse;whiteSpace=wrap;html=1;aspect=fixed;" parent="WIyWlLk6GJQsqaUBKTNV-1" vertex="1">
          <mxGeometry x="523.5" y="515" width="30" height="30" as="geometry" />
        </mxCell>
        <mxCell id="dsBlmj7pCga_AARecVS5-216" style="edgeStyle=orthogonalEdgeStyle;rounded=0;orthogonalLoop=1;jettySize=auto;html=1;exitX=1;exitY=0.5;exitDx=0;exitDy=0;entryX=0;entryY=0.5;entryDx=0;entryDy=0;dashed=1;" parent="WIyWlLk6GJQsqaUBKTNV-1" source="dsBlmj7pCga_AARecVS5-215" target="dsBlmj7pCga_AARecVS5-128" edge="1">
          <mxGeometry relative="1" as="geometry" />
        </mxCell>
        <mxCell id="dsBlmj7pCga_AARecVS5-215" value="C4" style="ellipse;whiteSpace=wrap;html=1;aspect=fixed;" parent="WIyWlLk6GJQsqaUBKTNV-1" vertex="1">
          <mxGeometry x="840" y="445" width="30" height="30" as="geometry" />
        </mxCell>
        <mxCell id="QIF2r9_5ypPfWMjJr6bX-2" style="edgeStyle=orthogonalEdgeStyle;rounded=0;orthogonalLoop=1;jettySize=auto;html=1;exitX=0;exitY=0.5;exitDx=0;exitDy=0;exitPerimeter=0;entryX=0;entryY=0.5;entryDx=0;entryDy=0;dashed=1;endArrow=none;startFill=0;" edge="1" parent="WIyWlLk6GJQsqaUBKTNV-1" source="QIF2r9_5ypPfWMjJr6bX-0" target="dsBlmj7pCga_AARecVS5-191">
          <mxGeometry relative="1" as="geometry" />
        </mxCell>
        <mxCell id="QIF2r9_5ypPfWMjJr6bX-0" value="" style="strokeWidth=2;html=1;shape=mxgraph.flowchart.annotation_2;align=left;labelPosition=right;pointerEvents=1;rotation=-180;" vertex="1" parent="WIyWlLk6GJQsqaUBKTNV-1">
          <mxGeometry x="996.5" y="1095" width="45" height="70" as="geometry" />
        </mxCell>
        <mxCell id="QIF2r9_5ypPfWMjJr6bX-1" value="Handled by&lt;br&gt;wipe-ram-exit.sh" style="text;html=1;align=center;verticalAlign=middle;resizable=0;points=[];autosize=1;strokeColor=none;fillColor=none;" vertex="1" parent="WIyWlLk6GJQsqaUBKTNV-1">
          <mxGeometry x="902.5" y="1107.5" width="110" height="40" as="geometry" />
        </mxCell>
        <mxCell id="QIF2r9_5ypPfWMjJr6bX-6" style="edgeStyle=orthogonalEdgeStyle;rounded=0;orthogonalLoop=1;jettySize=auto;html=1;entryX=0;entryY=0.5;entryDx=0;entryDy=0;dashed=1;endArrow=none;startFill=0;" edge="1" parent="WIyWlLk6GJQsqaUBKTNV-1" source="QIF2r9_5ypPfWMjJr6bX-4" target="dsBlmj7pCga_AARecVS5-192">
          <mxGeometry relative="1" as="geometry" />
        </mxCell>
        <mxCell id="QIF2r9_5ypPfWMjJr6bX-4" value="" style="strokeWidth=2;html=1;shape=mxgraph.flowchart.annotation_2;align=left;labelPosition=right;pointerEvents=1;rotation=-180;" vertex="1" parent="WIyWlLk6GJQsqaUBKTNV-1">
          <mxGeometry x="1021" y="1235" width="45" height="70" as="geometry" />
        </mxCell>
        <mxCell id="QIF2r9_5ypPfWMjJr6bX-5" value="Handled by&lt;br&gt;wipe-ram-exit-needshutdown.sh" style="text;html=1;align=center;verticalAlign=middle;resizable=0;points=[];autosize=1;strokeColor=none;fillColor=none;" vertex="1" parent="WIyWlLk6GJQsqaUBKTNV-1">
          <mxGeometry x="850" y="1250" width="190" height="40" as="geometry" />
        </mxCell>
        <mxCell id="QIF2r9_5ypPfWMjJr6bX-7" value="yes" style="text;html=1;align=center;verticalAlign=middle;resizable=0;points=[];autosize=1;strokeColor=none;fillColor=none;" vertex="1" parent="WIyWlLk6GJQsqaUBKTNV-1">
          <mxGeometry x="1190" y="944" width="40" height="30" as="geometry" />
        </mxCell>
        <mxCell id="QIF2r9_5ypPfWMjJr6bX-8" value="no" style="text;html=1;align=center;verticalAlign=middle;resizable=0;points=[];autosize=1;strokeColor=none;fillColor=none;" vertex="1" parent="WIyWlLk6GJQsqaUBKTNV-1">
          <mxGeometry x="1190" y="1043" width="40" height="30" as="geometry" />
        </mxCell>
        <mxCell id="QIF2r9_5ypPfWMjJr6bX-11" style="edgeStyle=orthogonalEdgeStyle;rounded=0;orthogonalLoop=1;jettySize=auto;html=1;entryX=0;entryY=0.5;entryDx=0;entryDy=0;dashed=1;endArrow=none;startFill=0;" edge="1" parent="WIyWlLk6GJQsqaUBKTNV-1" source="QIF2r9_5ypPfWMjJr6bX-9" target="dsBlmj7pCga_AARecVS5-71">
          <mxGeometry relative="1" as="geometry" />
        </mxCell>
        <mxCell id="QIF2r9_5ypPfWMjJr6bX-9" value="" style="strokeWidth=2;html=1;shape=mxgraph.flowchart.annotation_2;align=left;labelPosition=right;pointerEvents=1;rotation=-180;" vertex="1" parent="WIyWlLk6GJQsqaUBKTNV-1">
          <mxGeometry x="843" y="180" width="45" height="70" as="geometry" />
        </mxCell>
        <mxCell id="QIF2r9_5ypPfWMjJr6bX-10" value="&lt;div&gt;Note, these wiperamexit&lt;/div&gt;&lt;div&gt;and wiperamaction will be&lt;/div&gt;&lt;div&gt;visible for second kernel only&lt;br&gt;&lt;/div&gt;" style="text;html=1;align=center;verticalAlign=middle;resizable=0;points=[];autosize=1;strokeColor=none;fillColor=default;" vertex="1" parent="WIyWlLk6GJQsqaUBKTNV-1">
          <mxGeometry x="682" y="185" width="180" height="60" as="geometry" />
        </mxCell>
        <mxCell id="QIF2r9_5ypPfWMjJr6bX-12" value="C5" style="ellipse;whiteSpace=wrap;html=1;aspect=fixed;" vertex="1" parent="WIyWlLk6GJQsqaUBKTNV-1">
          <mxGeometry x="1250" y="200" width="30" height="30" as="geometry" />
        </mxCell>
        <mxCell id="QIF2r9_5ypPfWMjJr6bX-13" style="edgeStyle=orthogonalEdgeStyle;rounded=0;orthogonalLoop=1;jettySize=auto;html=1;exitX=1;exitY=0.5;exitDx=0;exitDy=0;entryX=0;entryY=0.5;entryDx=0;entryDy=0;dashed=1;" edge="1" parent="WIyWlLk6GJQsqaUBKTNV-1" source="dsBlmj7pCga_AARecVS5-71" target="QIF2r9_5ypPfWMjJr6bX-12">
          <mxGeometry relative="1" as="geometry" />
        </mxCell>
        <mxCell id="QIF2r9_5ypPfWMjJr6bX-16" style="edgeStyle=orthogonalEdgeStyle;rounded=0;orthogonalLoop=1;jettySize=auto;html=1;exitX=1;exitY=0.5;exitDx=0;exitDy=0;entryX=0;entryY=0.5;entryDx=0;entryDy=0;dashed=1;" edge="1" parent="WIyWlLk6GJQsqaUBKTNV-1" source="QIF2r9_5ypPfWMjJr6bX-14" target="dsBlmj7pCga_AARecVS5-139">
          <mxGeometry relative="1" as="geometry" />
        </mxCell>
        <mxCell id="QIF2r9_5ypPfWMjJr6bX-14" value="C5" style="ellipse;whiteSpace=wrap;html=1;aspect=fixed;" vertex="1" parent="WIyWlLk6GJQsqaUBKTNV-1">
          <mxGeometry x="962" y="1003" width="30" height="30" as="geometry" />
        </mxCell>
      </root>
    </mxGraphModel>
  </diagram>
</mxfile>
